<svg width="9" height="8" viewBox="0 0 9 8" fill="none" xmlns="http://www.w3.org/2000/svg">
<path fill-rule="evenodd" clip-rule="evenodd" d="M5.40007 2.62389C5.33144 2.62458 5.26432 2.60372 5.20817 2.56426C5.15202 2.52479 5.10967 2.4687 5.08707 2.40389L4.36107 0.219894C4.33798 0.155516 4.29556 0.0998423 4.23963 0.060483C4.18369 0.0211237 4.11697 0 4.04857 0C3.98018 0 3.91345 0.0211237 3.85751 0.060483C3.80158 0.0998423 3.75917 0.155516 3.73607 0.219894L3.00607 2.39989C2.98347 2.4647 2.94112 2.52079 2.88497 2.56026C2.82882 2.59972 2.7617 2.62058 2.69307 2.61989H0.328071C0.260028 2.61828 0.193232 2.63833 0.13733 2.67716C0.0814285 2.71598 0.0393149 2.77157 0.0170709 2.83589C-0.00468591 2.90005 -0.00504271 2.96953 0.0160543 3.0339C0.0371512 3.09827 0.0785628 3.15406 0.134071 3.19289L2.05407 4.55189C2.10897 4.59008 2.1501 4.64495 2.17136 4.70836C2.19261 4.77176 2.19286 4.84033 2.17207 4.90389L1.44007 7.09989C1.42454 7.14815 1.42089 7.19943 1.42942 7.2494C1.43795 7.29936 1.45842 7.34653 1.48907 7.38689C1.52011 7.42751 1.56027 7.46026 1.60631 7.4825C1.65234 7.50473 1.70296 7.51583 1.75407 7.51489C1.82341 7.51463 1.89092 7.49259 1.94707 7.45189L3.85307 6.10289C3.91007 6.06296 3.97798 6.04155 4.04757 6.04155C4.11716 6.04155 4.18507 6.06296 4.24207 6.10289L6.14807 7.45189C6.20422 7.49259 6.27173 7.51463 6.34107 7.51489C6.39218 7.51583 6.4428 7.50473 6.48884 7.4825C6.53487 7.46026 6.57503 7.42751 6.60607 7.38689C6.63673 7.34653 6.65719 7.29936 6.66572 7.2494C6.67425 7.19943 6.6706 7.14815 6.65507 7.09989L5.92307 4.90589C5.90228 4.84233 5.90253 4.77376 5.92379 4.71036C5.94504 4.64695 5.98617 4.59208 6.04107 4.55389L7.96207 3.19989C8.01758 3.16106 8.05899 3.10527 8.08009 3.0409C8.10118 2.97653 8.10083 2.90705 8.07907 2.84289C8.05683 2.77857 8.01471 2.72298 7.95881 2.68415C7.90291 2.64533 7.83611 2.62528 7.76807 2.62689L5.40007 2.62389Z" fill="#508A7B"/>
</svg>
