<svg width="31" height="30" viewBox="0 0 31 30" fill="none" xmlns="http://www.w3.org/2000/svg">
<path d="M15.4941 0.5C15.6463 0.500093 15.7924 0.560732 15.9004 0.667969V0.666992L16.7842 1.55176L29.9912 14.752C30.3118 15.0725 30.4873 15.496 30.4873 15.9434V15.9453C30.488 16.1114 30.4637 16.2762 30.416 16.4346L30.3604 16.5908C30.297 16.7442 30.2114 16.8869 30.1064 17.0146L29.9951 17.1377C29.6748 17.458 29.251 17.6338 28.7998 17.6338H26.8164V28.7666H4.1709V17.6338H2.21875C1.33947 17.6338 0.607568 16.9762 0.510742 16.1357L0.5 15.9648C0.498081 15.7963 0.521683 15.6288 0.569336 15.4678L0.625 15.3086C0.688867 15.1523 0.776069 15.0069 0.882812 14.877L0.995117 14.7529L0.996094 14.752L15.0869 0.667969C15.1949 0.560649 15.3419 0.5 15.4941 0.5ZM15.1436 2.68359L2.49707 15.3193L1.64258 16.1729H5.63184V27.3057H11.8926V19.0127C11.8926 18.5335 12.2805 18.1455 12.7598 18.1455H18.2285C18.7076 18.1457 19.0957 18.5336 19.0957 19.0127V27.3057H25.3555V16.1729H29.3477L28.4941 15.3193L16.6406 3.47266L15.8506 2.68359L15.4971 2.33008L15.1436 2.68359ZM13.0801 27.3057H17.9082V19.333H13.0801V27.3057Z" fill="#777E91" stroke="#353945"/>
</svg>
