<svg width="9" height="8" viewBox="0 0 9 8" fill="none" xmlns="http://www.w3.org/2000/svg">
<path d="M4.31055 0.25C4.32744 0.25 4.34458 0.254927 4.3584 0.264648C4.36522 0.269472 4.37096 0.275662 4.37598 0.282227L4.3877 0.304688L5.1123 2.48242L5.11328 2.48633C5.15306 2.60032 5.22747 2.69905 5.32617 2.76855C5.42439 2.83759 5.5421 2.8737 5.66211 2.87305V2.87402L8.03027 2.87695H8.03613C8.05114 2.8766 8.06578 2.88111 8.07812 2.88965C8.08999 2.89789 8.09943 2.90935 8.10449 2.92285C8.10886 2.93574 8.10872 2.94995 8.10449 2.96289L8.08105 2.99512H8.08008L6.16016 4.34863C6.06127 4.41749 5.98754 4.51662 5.94922 4.63086C5.92043 4.71673 5.9128 4.80788 5.92676 4.89648L5.94727 4.9834L5.94824 4.98535L6.67969 7.17871C6.6823 7.18792 6.68321 7.19756 6.68164 7.20703L6.66895 7.23535C6.66178 7.24457 6.6531 7.25272 6.64258 7.25781L6.60742 7.26465H6.60449C6.59589 7.26462 6.58717 7.26341 6.5791 7.26074L6.55664 7.24902L6.55469 7.24805L4.64844 5.89844H4.64746C4.54843 5.82907 4.43047 5.79199 4.30957 5.79199C4.21902 5.79202 4.13033 5.81289 4.0498 5.85254L3.97168 5.89844H3.9707L2.06445 7.24805L2.0625 7.24902C2.05561 7.25401 2.04803 7.25814 2.04004 7.26074L2.01562 7.26465H2.01172C1.99995 7.26486 1.98816 7.26287 1.97754 7.25781L1.9502 7.23535C1.944 7.22709 1.94022 7.21722 1.93848 7.20703C1.93678 7.19686 1.93731 7.18658 1.94043 7.17676L1.93945 7.17578L2.67188 4.9834V4.98145C2.70932 4.86687 2.70919 4.74321 2.6709 4.62891C2.6327 4.51495 2.55845 4.41651 2.45996 4.34766H2.46094L0.541016 2.98926L0.540039 2.98828L0.515625 2.95605C0.511584 2.94369 0.511813 2.93038 0.515625 2.91797C0.520511 2.90384 0.529757 2.89139 0.541992 2.88281L0.583984 2.87012H2.95508V2.86914C3.07522 2.86987 3.19269 2.83376 3.29102 2.76465C3.3652 2.71248 3.42537 2.64369 3.46777 2.56445L3.50391 2.48242L3.50488 2.47949L4.2334 0.304688C4.2391 0.288787 4.24986 0.27437 4.26367 0.264648C4.27055 0.259839 4.27822 0.256403 4.28613 0.253906L4.31055 0.25Z" stroke="#508A7B" stroke-width="0.5"/>
</svg>
