<svg width="18" height="18" viewBox="0 0 18 18" fill="none" xmlns="http://www.w3.org/2000/svg">
<path d="M16.9054 16.1952L13.8204 13.1072C16.2291 9.99754 15.9757 5.56875 13.207 2.7785C11.7492 1.30939 9.8042 0.5 7.73402 0.5C5.66282 0.5 3.71876 1.30943 2.26101 2.7785C0.803178 4.24761 0 6.20764 0 8.29383C0 10.381 0.80322 12.3401 2.26101 13.8092C3.71885 15.2783 5.66384 16.0877 7.73402 16.0877C9.44613 16.0877 11.1368 15.5128 12.4889 14.4264L15.5532 17.5576C15.7431 17.7489 15.9759 17.8346 16.2293 17.8346C16.4827 17.8346 16.7155 17.7281 16.9054 17.5576C17.2859 17.1957 17.2859 16.5784 16.9054 16.1949L16.9054 16.1952ZM13.567 8.29383C13.567 9.86942 12.9545 11.3394 11.8549 12.4466C10.7561 13.5539 9.27687 14.172 7.73396 14.172C6.19104 14.172 4.71173 13.5547 3.61303 12.4466C2.51429 11.3394 1.90093 9.84867 1.90093 8.29383C1.90093 6.71824 2.51344 5.24824 3.61303 4.14104C4.71178 3.0338 6.19104 2.41569 7.73396 2.41569C9.29746 2.41569 10.7562 3.03295 11.8549 4.14104C12.9536 5.24911 13.567 6.71832 13.567 8.29383Z" fill="#777E91"/>
</svg>
