<svg width="16" height="17" viewBox="0 0 16 17" fill="none" xmlns="http://www.w3.org/2000/svg">
<path d="M12.8137 10.6388L15.5518 7.96978C15.9431 7.58841 16.084 7.01792 15.915 6.49816C15.7462 5.97849 15.297 5.5997 14.7563 5.52112L10.9723 4.97131L9.27994 1.54246C9.0381 1.05246 8.53901 0.742188 7.99264 0.742188C7.44627 0.742188 6.94718 1.05246 6.70533 1.54236L5.01311 4.97131L1.2291 5.52112C0.688382 5.5997 0.239152 5.97849 0.0703313 6.49816C-0.0985847 7.01782 0.0422903 7.58831 0.433525 7.96978L3.17169 10.6388L2.52531 14.4076C2.43295 14.9462 2.65432 15.4905 3.09637 15.8117C3.34644 15.9934 3.64264 16.0859 3.94028 16.0859C4.16882 16.0859 4.39812 16.0314 4.60819 15.921L7.99264 14.1416L11.3772 15.921C11.5886 16.0322 11.8172 16.084 12.0494 16.0859C12.8411 16.0846 13.4826 15.4424 13.4826 14.6503C13.4826 14.5401 13.4702 14.4327 13.4467 14.3296L12.8137 10.6388ZM10.2692 9.1097C9.93091 9.4395 9.77654 9.91466 9.85636 10.3804L10.1387 12.0261L8.66074 11.2491C8.45163 11.1391 8.22213 11.0842 7.99273 11.0842C7.76324 11.0842 7.53384 11.1391 7.32472 11.2491L5.84688 12.0261L6.12911 10.3804C6.20902 9.91466 6.05455 9.4395 5.71624 9.1097L4.52053 7.94414L6.17294 7.70402C6.64054 7.63607 7.0447 7.34235 7.25381 6.91868L7.99273 5.4213L8.73175 6.91868C8.94086 7.34235 9.34511 7.63607 9.81262 7.70402L11.465 7.94414L10.2692 9.1097Z" fill="#FFD953"/>
</svg>
